<svg xmlns="http://www.w3.org/2000/svg" version="1.1" xmlns:xlink="http://www.w3.org/1999/xlink" xmlns:svgjs="http://svgjs.dev/svgjs" width="1440" height="560" preserveAspectRatio="none" viewBox="0 0 1440 560"><g mask="url(&quot;#SvgjsMask1003&quot;)" fill="none"><path d="M125.17 97.56L190.13 135.06L190.13 210.06L125.17 247.56L60.22 210.06L60.22 135.06zM125.17 322.56L190.13 360.06L190.13 435.06L125.17 472.56L60.22 435.06L60.22 360.06zM190.13 -14.94L255.08 22.56L255.08 97.56L190.13 135.06L125.17 97.56L125.17 22.56zM255.08 97.56L320.03 135.06L320.03 210.06L255.08 247.56L190.13 210.06L190.13 135.06zM320.03 -14.94L384.99 22.56L384.99 97.56L320.03 135.06L255.08 97.56L255.08 22.56zM384.99 97.56L449.94 135.06L449.94 210.06L384.99 247.56L320.03 210.06L320.03 135.06zM384.99 547.56L449.94 585.06L449.94 660.06L384.99 697.56L320.03 660.06L320.03 585.06zM514.9 97.56L579.85 135.06L579.85 210.06L514.9 247.56L449.94 210.06L449.94 135.06zM449.94 210.06L514.9 247.56L514.9 322.56L449.94 360.06L384.99 322.56L384.99 247.56zM449.94 435.06L514.9 472.56L514.9 547.56L449.94 585.06L384.99 547.56L384.99 472.56zM579.85 210.06L644.8 247.56L644.8 322.56L579.85 360.06L514.9 322.56L514.9 247.56zM579.85 435.06L644.8 472.56L644.8 547.56L579.85 585.06L514.9 547.56L514.9 472.56zM774.71 97.56L839.67 135.06L839.67 210.06L774.71 247.56L709.76 210.06L709.76 135.06zM774.71 547.56L839.67 585.06L839.67 660.06L774.71 697.56L709.76 660.06L709.76 585.06zM839.66 210.06L904.62 247.56L904.62 322.56L839.66 360.06L774.71 322.56L774.71 247.56zM904.62 547.56L969.57 585.06L969.57 660.06L904.62 697.56L839.66 660.06L839.66 585.06zM1034.53 97.56L1099.48 135.06L1099.48 210.06L1034.53 247.56L969.57 210.06L969.57 135.06zM969.57 210.06L1034.53 247.56L1034.53 322.56L969.57 360.06L904.62 322.56L904.62 247.56zM1099.48 -14.94L1164.43 22.56L1164.43 97.56L1099.48 135.06L1034.53 97.56L1034.53 22.56zM1099.48 210.06L1164.43 247.56L1164.43 322.56L1099.48 360.06L1034.53 322.56L1034.53 247.56zM1099.48 435.06L1164.43 472.56L1164.43 547.56L1099.48 585.06L1034.53 547.56L1034.53 472.56zM1294.34 97.56L1359.29 135.06L1359.29 210.06L1294.34 247.56L1229.39 210.06L1229.39 135.06zM1294.34 322.56L1359.29 360.06L1359.29 435.06L1294.34 472.56L1229.39 435.06L1229.39 360.06zM1229.39 435.06L1294.34 472.56L1294.34 547.56L1229.39 585.06L1164.43 547.56L1164.43 472.56zM1424.25 322.56L1489.2 360.06L1489.2 435.06L1424.25 472.56L1359.3 435.06L1359.3 360.06zM1424.25 547.56L1489.2 585.06L1489.2 660.06L1424.25 697.56L1359.3 660.06L1359.3 585.06zM1554.16 97.56L1619.11 135.06L1619.11 210.06L1554.16 247.56L1489.2 210.06L1489.2 135.06zM1489.2 210.06L1554.16 247.56L1554.16 322.56L1489.2 360.06L1424.25 322.56L1424.25 247.56zM1489.2 435.06L1554.16 472.56L1554.16 547.56L1489.2 585.06L1424.25 547.56L1424.25 472.56zM1554.16 547.56L1619.11 585.06L1619.11 660.06L1554.16 697.56L1489.2 660.06L1489.2 585.06z" stroke="rgba(11, 172, 170, 1)" stroke-width="2"></path><path d="M117.67 97.56 a7.5 7.5 0 1 0 15 0 a7.5 7.5 0 1 0 -15 0zM182.63 135.06 a7.5 7.5 0 1 0 15 0 a7.5 7.5 0 1 0 -15 0zM182.63 210.06 a7.5 7.5 0 1 0 15 0 a7.5 7.5 0 1 0 -15 0zM117.67 247.56 a7.5 7.5 0 1 0 15 0 a7.5 7.5 0 1 0 -15 0zM52.72 210.06 a7.5 7.5 0 1 0 15 0 a7.5 7.5 0 1 0 -15 0zM52.72 135.06 a7.5 7.5 0 1 0 15 0 a7.5 7.5 0 1 0 -15 0zM117.67 322.56 a7.5 7.5 0 1 0 15 0 a7.5 7.5 0 1 0 -15 0zM182.63 360.06 a7.5 7.5 0 1 0 15 0 a7.5 7.5 0 1 0 -15 0zM182.63 435.06 a7.5 7.5 0 1 0 15 0 a7.5 7.5 0 1 0 -15 0zM117.67 472.56 a7.5 7.5 0 1 0 15 0 a7.5 7.5 0 1 0 -15 0zM52.72 435.06 a7.5 7.5 0 1 0 15 0 a7.5 7.5 0 1 0 -15 0zM52.72 360.06 a7.5 7.5 0 1 0 15 0 a7.5 7.5 0 1 0 -15 0zM182.63 -14.94 a7.5 7.5 0 1 0 15 0 a7.5 7.5 0 1 0 -15 0zM247.58 22.56 a7.5 7.5 0 1 0 15 0 a7.5 7.5 0 1 0 -15 0zM247.58 97.56 a7.5 7.5 0 1 0 15 0 a7.5 7.5 0 1 0 -15 0zM117.67 22.56 a7.5 7.5 0 1 0 15 0 a7.5 7.5 0 1 0 -15 0zM312.53 135.06 a7.5 7.5 0 1 0 15 0 a7.5 7.5 0 1 0 -15 0zM312.53 210.06 a7.5 7.5 0 1 0 15 0 a7.5 7.5 0 1 0 -15 0zM247.58 247.56 a7.5 7.5 0 1 0 15 0 a7.5 7.5 0 1 0 -15 0zM312.53 -14.94 a7.5 7.5 0 1 0 15 0 a7.5 7.5 0 1 0 -15 0zM377.49 22.56 a7.5 7.5 0 1 0 15 0 a7.5 7.5 0 1 0 -15 0zM377.49 97.56 a7.5 7.5 0 1 0 15 0 a7.5 7.5 0 1 0 -15 0zM442.44 135.06 a7.5 7.5 0 1 0 15 0 a7.5 7.5 0 1 0 -15 0zM442.44 210.06 a7.5 7.5 0 1 0 15 0 a7.5 7.5 0 1 0 -15 0zM377.49 247.56 a7.5 7.5 0 1 0 15 0 a7.5 7.5 0 1 0 -15 0zM377.49 547.56 a7.5 7.5 0 1 0 15 0 a7.5 7.5 0 1 0 -15 0zM442.44 585.06 a7.5 7.5 0 1 0 15 0 a7.5 7.5 0 1 0 -15 0zM442.44 660.06 a7.5 7.5 0 1 0 15 0 a7.5 7.5 0 1 0 -15 0zM377.49 697.56 a7.5 7.5 0 1 0 15 0 a7.5 7.5 0 1 0 -15 0zM312.53 660.06 a7.5 7.5 0 1 0 15 0 a7.5 7.5 0 1 0 -15 0zM312.53 585.06 a7.5 7.5 0 1 0 15 0 a7.5 7.5 0 1 0 -15 0zM507.4 97.56 a7.5 7.5 0 1 0 15 0 a7.5 7.5 0 1 0 -15 0zM572.35 135.06 a7.5 7.5 0 1 0 15 0 a7.5 7.5 0 1 0 -15 0zM572.35 210.06 a7.5 7.5 0 1 0 15 0 a7.5 7.5 0 1 0 -15 0zM507.4 247.56 a7.5 7.5 0 1 0 15 0 a7.5 7.5 0 1 0 -15 0zM507.4 322.56 a7.5 7.5 0 1 0 15 0 a7.5 7.5 0 1 0 -15 0zM442.44 360.06 a7.5 7.5 0 1 0 15 0 a7.5 7.5 0 1 0 -15 0zM377.49 322.56 a7.5 7.5 0 1 0 15 0 a7.5 7.5 0 1 0 -15 0zM442.44 435.06 a7.5 7.5 0 1 0 15 0 a7.5 7.5 0 1 0 -15 0zM507.4 472.56 a7.5 7.5 0 1 0 15 0 a7.5 7.5 0 1 0 -15 0zM507.4 547.56 a7.5 7.5 0 1 0 15 0 a7.5 7.5 0 1 0 -15 0zM377.49 472.56 a7.5 7.5 0 1 0 15 0 a7.5 7.5 0 1 0 -15 0zM637.3 247.56 a7.5 7.5 0 1 0 15 0 a7.5 7.5 0 1 0 -15 0zM637.3 322.56 a7.5 7.5 0 1 0 15 0 a7.5 7.5 0 1 0 -15 0zM572.35 360.06 a7.5 7.5 0 1 0 15 0 a7.5 7.5 0 1 0 -15 0zM572.35 435.06 a7.5 7.5 0 1 0 15 0 a7.5 7.5 0 1 0 -15 0zM637.3 472.56 a7.5 7.5 0 1 0 15 0 a7.5 7.5 0 1 0 -15 0zM637.3 547.56 a7.5 7.5 0 1 0 15 0 a7.5 7.5 0 1 0 -15 0zM572.35 585.06 a7.5 7.5 0 1 0 15 0 a7.5 7.5 0 1 0 -15 0zM767.21 97.56 a7.5 7.5 0 1 0 15 0 a7.5 7.5 0 1 0 -15 0zM832.17 135.06 a7.5 7.5 0 1 0 15 0 a7.5 7.5 0 1 0 -15 0zM832.17 210.06 a7.5 7.5 0 1 0 15 0 a7.5 7.5 0 1 0 -15 0zM767.21 247.56 a7.5 7.5 0 1 0 15 0 a7.5 7.5 0 1 0 -15 0zM702.26 210.06 a7.5 7.5 0 1 0 15 0 a7.5 7.5 0 1 0 -15 0zM702.26 135.06 a7.5 7.5 0 1 0 15 0 a7.5 7.5 0 1 0 -15 0zM767.21 547.56 a7.5 7.5 0 1 0 15 0 a7.5 7.5 0 1 0 -15 0zM832.17 585.06 a7.5 7.5 0 1 0 15 0 a7.5 7.5 0 1 0 -15 0zM832.17 660.06 a7.5 7.5 0 1 0 15 0 a7.5 7.5 0 1 0 -15 0zM767.21 697.56 a7.5 7.5 0 1 0 15 0 a7.5 7.5 0 1 0 -15 0zM702.26 660.06 a7.5 7.5 0 1 0 15 0 a7.5 7.5 0 1 0 -15 0zM702.26 585.06 a7.5 7.5 0 1 0 15 0 a7.5 7.5 0 1 0 -15 0zM832.16 210.06 a7.5 7.5 0 1 0 15 0 a7.5 7.5 0 1 0 -15 0zM897.12 247.56 a7.5 7.5 0 1 0 15 0 a7.5 7.5 0 1 0 -15 0zM897.12 322.56 a7.5 7.5 0 1 0 15 0 a7.5 7.5 0 1 0 -15 0zM832.16 360.06 a7.5 7.5 0 1 0 15 0 a7.5 7.5 0 1 0 -15 0zM767.21 322.56 a7.5 7.5 0 1 0 15 0 a7.5 7.5 0 1 0 -15 0zM897.12 547.56 a7.5 7.5 0 1 0 15 0 a7.5 7.5 0 1 0 -15 0zM962.07 585.06 a7.5 7.5 0 1 0 15 0 a7.5 7.5 0 1 0 -15 0zM962.07 660.06 a7.5 7.5 0 1 0 15 0 a7.5 7.5 0 1 0 -15 0zM897.12 697.56 a7.5 7.5 0 1 0 15 0 a7.5 7.5 0 1 0 -15 0zM832.16 660.06 a7.5 7.5 0 1 0 15 0 a7.5 7.5 0 1 0 -15 0zM832.16 585.06 a7.5 7.5 0 1 0 15 0 a7.5 7.5 0 1 0 -15 0zM1027.03 97.56 a7.5 7.5 0 1 0 15 0 a7.5 7.5 0 1 0 -15 0zM1091.98 135.06 a7.5 7.5 0 1 0 15 0 a7.5 7.5 0 1 0 -15 0zM1091.98 210.06 a7.5 7.5 0 1 0 15 0 a7.5 7.5 0 1 0 -15 0zM1027.03 247.56 a7.5 7.5 0 1 0 15 0 a7.5 7.5 0 1 0 -15 0zM962.07 210.06 a7.5 7.5 0 1 0 15 0 a7.5 7.5 0 1 0 -15 0zM962.07 135.06 a7.5 7.5 0 1 0 15 0 a7.5 7.5 0 1 0 -15 0zM1027.03 322.56 a7.5 7.5 0 1 0 15 0 a7.5 7.5 0 1 0 -15 0zM962.07 360.06 a7.5 7.5 0 1 0 15 0 a7.5 7.5 0 1 0 -15 0zM1091.98 -14.94 a7.5 7.5 0 1 0 15 0 a7.5 7.5 0 1 0 -15 0zM1156.93 22.56 a7.5 7.5 0 1 0 15 0 a7.5 7.5 0 1 0 -15 0zM1156.93 97.56 a7.5 7.5 0 1 0 15 0 a7.5 7.5 0 1 0 -15 0zM1027.03 22.56 a7.5 7.5 0 1 0 15 0 a7.5 7.5 0 1 0 -15 0zM1156.93 247.56 a7.5 7.5 0 1 0 15 0 a7.5 7.5 0 1 0 -15 0zM1156.93 322.56 a7.5 7.5 0 1 0 15 0 a7.5 7.5 0 1 0 -15 0zM1091.98 360.06 a7.5 7.5 0 1 0 15 0 a7.5 7.5 0 1 0 -15 0zM1091.98 435.06 a7.5 7.5 0 1 0 15 0 a7.5 7.5 0 1 0 -15 0zM1156.93 472.56 a7.5 7.5 0 1 0 15 0 a7.5 7.5 0 1 0 -15 0zM1156.93 547.56 a7.5 7.5 0 1 0 15 0 a7.5 7.5 0 1 0 -15 0zM1091.98 585.06 a7.5 7.5 0 1 0 15 0 a7.5 7.5 0 1 0 -15 0zM1027.03 547.56 a7.5 7.5 0 1 0 15 0 a7.5 7.5 0 1 0 -15 0zM1027.03 472.56 a7.5 7.5 0 1 0 15 0 a7.5 7.5 0 1 0 -15 0zM1286.84 97.56 a7.5 7.5 0 1 0 15 0 a7.5 7.5 0 1 0 -15 0zM1351.79 135.06 a7.5 7.5 0 1 0 15 0 a7.5 7.5 0 1 0 -15 0zM1351.79 210.06 a7.5 7.5 0 1 0 15 0 a7.5 7.5 0 1 0 -15 0zM1286.84 247.56 a7.5 7.5 0 1 0 15 0 a7.5 7.5 0 1 0 -15 0zM1221.89 210.06 a7.5 7.5 0 1 0 15 0 a7.5 7.5 0 1 0 -15 0zM1221.89 135.06 a7.5 7.5 0 1 0 15 0 a7.5 7.5 0 1 0 -15 0zM1286.84 322.56 a7.5 7.5 0 1 0 15 0 a7.5 7.5 0 1 0 -15 0zM1351.79 360.06 a7.5 7.5 0 1 0 15 0 a7.5 7.5 0 1 0 -15 0zM1351.79 435.06 a7.5 7.5 0 1 0 15 0 a7.5 7.5 0 1 0 -15 0zM1286.84 472.56 a7.5 7.5 0 1 0 15 0 a7.5 7.5 0 1 0 -15 0zM1221.89 435.06 a7.5 7.5 0 1 0 15 0 a7.5 7.5 0 1 0 -15 0zM1221.89 360.06 a7.5 7.5 0 1 0 15 0 a7.5 7.5 0 1 0 -15 0zM1286.84 547.56 a7.5 7.5 0 1 0 15 0 a7.5 7.5 0 1 0 -15 0zM1221.89 585.06 a7.5 7.5 0 1 0 15 0 a7.5 7.5 0 1 0 -15 0zM1416.75 322.56 a7.5 7.5 0 1 0 15 0 a7.5 7.5 0 1 0 -15 0zM1481.7 360.06 a7.5 7.5 0 1 0 15 0 a7.5 7.5 0 1 0 -15 0zM1481.7 435.06 a7.5 7.5 0 1 0 15 0 a7.5 7.5 0 1 0 -15 0zM1416.75 472.56 a7.5 7.5 0 1 0 15 0 a7.5 7.5 0 1 0 -15 0zM1351.8 435.06 a7.5 7.5 0 1 0 15 0 a7.5 7.5 0 1 0 -15 0zM1351.8 360.06 a7.5 7.5 0 1 0 15 0 a7.5 7.5 0 1 0 -15 0zM1416.75 547.56 a7.5 7.5 0 1 0 15 0 a7.5 7.5 0 1 0 -15 0zM1481.7 585.06 a7.5 7.5 0 1 0 15 0 a7.5 7.5 0 1 0 -15 0zM1481.7 660.06 a7.5 7.5 0 1 0 15 0 a7.5 7.5 0 1 0 -15 0zM1416.75 697.56 a7.5 7.5 0 1 0 15 0 a7.5 7.5 0 1 0 -15 0zM1351.8 660.06 a7.5 7.5 0 1 0 15 0 a7.5 7.5 0 1 0 -15 0zM1351.8 585.06 a7.5 7.5 0 1 0 15 0 a7.5 7.5 0 1 0 -15 0zM1546.66 97.56 a7.5 7.5 0 1 0 15 0 a7.5 7.5 0 1 0 -15 0zM1611.61 135.06 a7.5 7.5 0 1 0 15 0 a7.5 7.5 0 1 0 -15 0zM1611.61 210.06 a7.5 7.5 0 1 0 15 0 a7.5 7.5 0 1 0 -15 0zM1546.66 247.56 a7.5 7.5 0 1 0 15 0 a7.5 7.5 0 1 0 -15 0zM1481.7 210.06 a7.5 7.5 0 1 0 15 0 a7.5 7.5 0 1 0 -15 0zM1481.7 135.06 a7.5 7.5 0 1 0 15 0 a7.5 7.5 0 1 0 -15 0zM1546.66 322.56 a7.5 7.5 0 1 0 15 0 a7.5 7.5 0 1 0 -15 0zM1416.75 247.56 a7.5 7.5 0 1 0 15 0 a7.5 7.5 0 1 0 -15 0zM1546.66 472.56 a7.5 7.5 0 1 0 15 0 a7.5 7.5 0 1 0 -15 0zM1546.66 547.56 a7.5 7.5 0 1 0 15 0 a7.5 7.5 0 1 0 -15 0zM1611.61 585.06 a7.5 7.5 0 1 0 15 0 a7.5 7.5 0 1 0 -15 0zM1611.61 660.06 a7.5 7.5 0 1 0 15 0 a7.5 7.5 0 1 0 -15 0zM1546.66 697.56 a7.5 7.5 0 1 0 15 0 a7.5 7.5 0 1 0 -15 0z" fill="rgba(11, 172, 170, 1)"></path><path d="M76.53 28.01L119.84 53.01L119.84 103.01L76.53 128.01L33.23 103.01L33.23 53.01zM33.23 253.01L76.53 278.01L76.53 328.01L33.23 353.01L-10.07 328.01L-10.07 278.01zM76.53 478.01L119.84 503.01L119.84 553.01L76.53 578.01L33.23 553.01L33.23 503.01zM163.14 178.01L206.44 203.01L206.44 253.01L163.14 278.01L119.84 253.01L119.84 203.01zM163.14 328.01L206.44 353.01L206.44 403.01L163.14 428.01L119.84 403.01L119.84 353.01zM206.44 -46.99L249.74 -21.99L249.74 28.01L206.44 53.01L163.14 28.01L163.14 -21.99zM206.44 103.01L249.74 128.01L249.74 178.01L206.44 203.01L163.14 178.01L163.14 128.01zM206.44 253.01L249.74 278.01L249.74 328.01L206.44 353.01L163.14 328.01L163.14 278.01zM293.05 103.01L336.35 128.01L336.35 178.01L293.05 203.01L249.74 178.01L249.74 128.01zM422.95 328.01L466.26 353.01L466.26 403.01L422.95 428.01L379.65 403.01L379.65 353.01zM379.65 403.01L422.95 428.01L422.95 478.01L379.65 503.01L336.35 478.01L336.35 428.01zM466.26 -46.99L509.56 -21.99L509.56 28.01L466.26 53.01L422.95 28.01L422.95 -21.99zM466.26 103.01L509.56 128.01L509.56 178.01L466.26 203.01L422.95 178.01L422.95 128.01zM509.56 178.01L552.86 203.01L552.86 253.01L509.56 278.01L466.26 253.01L466.26 203.01zM466.26 253.01L509.56 278.01L509.56 328.01L466.26 353.01L422.95 328.01L422.95 278.01zM466.26 403.01L509.56 428.01L509.56 478.01L466.26 503.01L422.95 478.01L422.95 428.01zM509.56 478.01L552.86 503.01L552.86 553.01L509.56 578.01L466.26 553.01L466.26 503.01zM552.86 -46.99L596.16 -21.99L596.16 28.01L552.86 53.01L509.56 28.01L509.56 -21.99zM596.16 28.01L639.47 53.01L639.47 103.01L596.16 128.01L552.86 103.01L552.86 53.01zM552.86 253.01L596.16 278.01L596.16 328.01L552.86 353.01L509.56 328.01L509.56 278.01zM596.16 328.01L639.47 353.01L639.47 403.01L596.16 428.01L552.86 403.01L552.86 353.01zM639.47 -46.99L682.77 -21.99L682.77 28.01L639.47 53.01L596.16 28.01L596.16 -21.99zM682.77 28.01L726.07 53.01L726.07 103.01L682.77 128.01L639.47 103.01L639.47 53.01zM682.77 178.01L726.07 203.01L726.07 253.01L682.77 278.01L639.47 253.01L639.47 203.01zM682.77 328.01L726.07 353.01L726.07 403.01L682.77 428.01L639.47 403.01L639.47 353.01zM639.47 403.01L682.77 428.01L682.77 478.01L639.47 503.01L596.16 478.01L596.16 428.01zM726.07 -46.99L769.37 -21.99L769.37 28.01L726.07 53.01L682.77 28.01L682.77 -21.99zM769.37 28.01L812.68 53.01L812.68 103.01L769.37 128.01L726.07 103.01L726.07 53.01zM812.68 103.01L855.98 128.01L855.98 178.01L812.68 203.01L769.37 178.01L769.37 128.01zM855.98 178.01L899.28 203.01L899.28 253.01L855.98 278.01L812.68 253.01L812.68 203.01zM812.68 253.01L855.98 278.01L855.98 328.01L812.68 353.01L769.37 328.01L769.37 278.01zM942.58 28.01L985.89 53.01L985.89 103.01L942.58 128.01L899.28 103.01L899.28 53.01zM942.58 178.01L985.89 203.01L985.89 253.01L942.58 278.01L899.28 253.01L899.28 203.01zM899.28 403.01L942.58 428.01L942.58 478.01L899.28 503.01L855.98 478.01L855.98 428.01zM1029.19 28.01L1072.49 53.01L1072.49 103.01L1029.19 128.01L985.89 103.01L985.89 53.01zM985.89 103.01L1029.19 128.01L1029.19 178.01L985.89 203.01L942.58 178.01L942.58 128.01zM1115.79 28.01L1159.1 53.01L1159.1 103.01L1115.79 128.01L1072.49 103.01L1072.49 53.01zM1072.49 103.01L1115.79 128.01L1115.79 178.01L1072.49 203.01L1029.19 178.01L1029.19 128.01zM1072.49 253.01L1115.79 278.01L1115.79 328.01L1072.49 353.01L1029.19 328.01L1029.19 278.01zM1072.49 403.01L1115.79 428.01L1115.79 478.01L1072.49 503.01L1029.19 478.01L1029.19 428.01zM1115.79 478.01L1159.1 503.01L1159.1 553.01L1115.79 578.01L1072.49 553.01L1072.49 503.01zM1159.1 -46.99L1202.4 -21.99L1202.4 28.01L1159.1 53.01L1115.79 28.01L1115.79 -21.99zM1159.1 253.01L1202.4 278.01L1202.4 328.01L1159.1 353.01L1115.79 328.01L1115.79 278.01zM1245.7 103.01L1289 128.01L1289 178.01L1245.7 203.01L1202.4 178.01L1202.4 128.01zM1245.7 403.01L1289 428.01L1289 478.01L1245.7 503.01L1202.4 478.01L1202.4 428.01zM1289 478.01L1332.31 503.01L1332.31 553.01L1289 578.01L1245.7 553.01L1245.7 503.01zM1375.61 178.01L1418.91 203.01L1418.91 253.01L1375.61 278.01L1332.31 253.01L1332.31 203.01zM1375.61 328.01L1418.91 353.01L1418.91 403.01L1375.61 428.01L1332.31 403.01L1332.31 353.01zM1375.61 478.01L1418.91 503.01L1418.91 553.01L1375.61 578.01L1332.31 553.01L1332.31 503.01zM1462.21 28.01L1505.52 53.01L1505.52 103.01L1462.21 128.01L1418.91 103.01L1418.91 53.01zM1462.21 328.01L1505.52 353.01L1505.52 403.01L1462.21 428.01L1418.91 403.01L1418.91 353.01zM1418.91 403.01L1462.21 428.01L1462.21 478.01L1418.91 503.01L1375.61 478.01L1375.61 428.01zM1462.21 478.01L1505.52 503.01L1505.52 553.01L1462.21 578.01L1418.91 553.01L1418.91 503.01z" stroke="rgba(253, 188, 180, 1)" stroke-width="2"></path></g><defs><mask id="SvgjsMask1003"><rect width="1440" height="560" fill="#ffffff"></rect></mask></defs></svg>